# xmcd CD database file
#
# Track frame offsets:
#	150
#	27297
#	45720
#	73572
#	111299
#	131018
#	149920
#	171248
#
# Disc length: 2445 seconds
#
# Revision: 1
# Processed by: cddbd v1.4PL0 Copyright (c) Steve Scherf et al.
# Submitted via: CDex 1.51
#
DISCID=7a098b08
DTITLE=Riho Sibul and Estonian Dream Big Band - Riho Sibul. Estonian Dream Big Band. Dirigent Jüri Leiten
DYEAR=2002
DGENRE=Jazz
TTITLE0=River Man
TTITLE1=Solid Air
TTITLE2=Yesterdays
TTITLE3=Do You Know What It Means
TTITLE4=Moondance
TTITLE5=Parasite
TTITLE6=Unforgettable
TTITLE7=Johnsburg Illinois
EXTD=YEAR: 2002
EXTT0=
EXTT1=
EXTT2=
EXTT3=
EXTT4=
EXTT5=
EXTT6=
EXTT7=
PLAYORDER=
